<?xml version="1.0" standalone="no"?>
<!DOCTYPE svg PUBLIC "-//W3C//DTD SVG 20010904//EN"
 "http://www.w3.org/TR/2001/REC-SVG-20010904/DTD/svg10.dtd">
<svg version="1.0" xmlns="http://www.w3.org/2000/svg"
 width="2000.000000pt" height="2000.000000pt" viewBox="0 0 2000.000000 2000.000000"
 preserveAspectRatio="xMidYMid meet">
<metadata>
Created by potrace 1.11, written by Peter Selinger 2001-2013
</metadata>
<g transform="translate(0.000000,2000.000000) scale(0.100000,-0.100000)"
fill="#000000" stroke="none">
<path d="M6360 19443 c-132 -27 -249 -270 -287 -595 -12 -109 -10 -180 7 -189
77 -45 192 -109 194 -109 2 0 43 -25 92 -55 49 -30 98 -59 109 -64 25 -12 187
-117 328 -213 625 -424 1154 -921 1558 -1463 89 -120 309 -447 309 -460 0 -3
12 -24 26 -47 15 -23 40 -65 56 -92 39 -69 238 -472 238 -483 0 -5 10 -29 21
-54 103 -212 292 -836 335 -1104 3 -22 7 -44 9 -50 11 -51 43 -258 50 -325 3
-30 7 -66 10 -80 41 -229 52 -969 20 -1335 -2 -27 -7 -81 -10 -120 -3 -38 -12
-124 -20 -190 -9 -66 -18 -140 -21 -165 -3 -25 -7 -58 -10 -75 -2 -16 -6 -43
-8 -60 -2 -16 -9 -57 -15 -90 -5 -33 -12 -76 -15 -95 -3 -19 -8 -46 -11 -60
-3 -14 -8 -38 -10 -55 -5 -25 -23 -120 -39 -200 -24 -115 -43 -203 -73 -325
-19 -80 -36 -154 -38 -164 -3 -10 -9 -33 -15 -51 -6 -18 -12 -41 -14 -51 -27
-141 -294 -984 -363 -1144 -3 -8 -7 -19 -9 -25 -12 -45 -263 -669 -309 -770
-8 -16 -117 -266 -243 -555 -127 -289 -241 -551 -256 -582 -14 -31 -26 -59
-26 -62 0 -3 -15 -38 -34 -78 -19 -40 -66 -147 -106 -238 -40 -91 -83 -187
-95 -215 -13 -27 -37 -84 -55 -125 -18 -41 -48 -108 -66 -148 -19 -41 -34 -75
-34 -78 0 -2 -15 -36 -34 -76 -18 -40 -49 -109 -69 -153 -19 -44 -44 -100 -55
-125 -11 -25 -46 -103 -78 -175 -31 -71 -72 -163 -90 -203 -19 -40 -34 -74
-34 -77 0 -2 -15 -37 -34 -77 -77 -166 -96 -208 -96 -213 0 -2 -18 -41 -39
-85 -22 -44 -41 -84 -42 -88 -3 -15 -19 -52 -72 -167 -53 -117 -74 -164 -115
-255 -49 -109 -312 -690 -335 -740 -14 -30 -81 -179 -150 -330 -157 -347 -172
-381 -209 -460 -17 -36 -42 -90 -55 -120 -14 -30 -37 -82 -53 -115 -31 -67
-163 -357 -247 -540 -30 -66 -67 -147 -83 -180 -26 -54 -62 -132 -130 -280
-13 -27 -40 -86 -60 -130 -21 -44 -47 -102 -59 -128 -12 -27 -45 -96 -73 -155
-27 -59 -72 -154 -98 -212 -27 -58 -72 -154 -100 -215 -29 -60 -80 -171 -115
-245 -34 -74 -92 -197 -129 -274 -36 -76 -66 -140 -66 -141 0 -2 -31 -67 -68
-146 -38 -79 -83 -174 -100 -210 -18 -37 -32 -71 -32 -77 0 -6 -5 -12 -11 -14
-7 -2 -10 -9 -8 -15 2 -6 56 61 119 150 63 88 120 165 125 171 14 15 54 70
100 136 21 30 41 57 45 60 3 3 22 27 40 55 19 27 40 56 47 65 7 8 74 98 149
200 133 180 286 385 302 405 4 6 84 111 177 235 93 124 205 272 249 330 44 58
100 132 126 165 25 33 47 62 50 65 3 3 17 21 30 40 14 19 30 42 37 50 7 8 94
121 194 250 99 129 202 262 228 295 112 140 418 529 436 554 57 76 738 916
754 931 3 3 24 28 45 55 22 28 44 55 50 60 6 6 56 64 110 130 179 215 447 524
655 754 42 46 84 93 94 105 159 184 639 664 841 841 146 128 302 240 422 301
214 110 323 74 359 -118 6 -31 11 -51 29 -133 8 -38 32 -144 52 -235 20 -91
40 -183 45 -205 10 -46 38 -173 44 -195 2 -8 22 -96 44 -195 23 -99 52 -229
67 -290 14 -60 28 -121 30 -135 3 -14 14 -61 24 -105 11 -44 33 -141 49 -215
17 -74 56 -243 87 -375 30 -132 57 -247 59 -255 1 -8 19 -86 40 -172 20 -87
38 -166 40 -175 1 -10 18 -79 35 -153 18 -74 46 -193 62 -265 17 -71 39 -166
49 -210 41 -173 61 -261 66 -290 3 -16 9 -38 14 -47 5 -10 8 -18 5 -18 -3 0 0
-15 5 -32 5 -18 12 -46 15 -63 2 -16 18 -82 34 -145 16 -63 31 -126 33 -140 3
-14 15 -65 27 -115 12 -49 24 -99 26 -110 2 -11 17 -76 33 -145 17 -69 55
-233 86 -365 31 -132 66 -285 80 -340 39 -164 83 -353 110 -467 14 -60 36
-154 49 -210 14 -57 27 -114 30 -128 11 -54 67 -286 71 -295 5 -10 -3 60 -11
100 -2 11 -22 128 -45 260 -22 132 -42 251 -44 265 -2 14 -7 43 -10 65 -4 22
-8 47 -10 55 -2 8 -7 38 -11 65 -3 28 -8 59 -10 70 -6 28 -13 74 -18 115 -3
19 -14 91 -26 160 -11 69 -23 145 -26 170 -3 25 -14 99 -24 165 -10 66 -22
140 -25 165 -3 25 -8 56 -10 70 -2 14 -7 43 -10 65 -2 22 -7 51 -9 65 -2 14
-7 47 -11 73 -4 27 -8 56 -9 65 -4 18 -15 98 -21 147 -4 26 -19 139 -30 215
-11 81 -15 110 -20 150 -4 25 -8 56 -10 70 -2 14 -7 48 -10 75 -3 28 -7 61
-10 75 -2 14 -7 49 -10 79 -4 30 -8 62 -10 72 -2 10 -6 44 -10 76 -3 32 -8 73
-11 91 -2 17 -6 49 -9 70 -3 20 -7 53 -10 72 -2 19 -7 56 -10 82 -10 94 -16
143 -20 173 -2 17 -7 53 -10 80 -3 28 -8 64 -10 80 -2 17 -7 58 -10 93 -4 35
-8 71 -10 80 -1 9 -6 51 -10 92 -4 41 -9 83 -10 92 -2 9 -7 49 -10 89 -4 40
-8 80 -10 88 -1 9 -6 50 -10 91 -4 41 -8 82 -10 90 -2 8 -6 53 -10 100 -8 90
-9 100 -19 195 -11 96 -15 136 -21 205 -3 36 -8 83 -10 105 -3 22 -7 74 -10
115 -3 41 -8 86 -10 100 -2 14 -7 63 -11 110 -3 47 -7 101 -9 120 -2 19 -6 71
-9 115 -4 44 -9 105 -11 135 -9 97 -14 163 -20 245 -3 44 -7 107 -10 140 -3
33 -7 94 -10 135 -2 41 -7 111 -10 155 -8 116 -14 215 -20 345 -3 63 -7 147
-10 185 -2 39 -7 131 -10 205 -3 74 -8 178 -10 230 -25 563 -25 1606 0 2025 2
39 6 121 10 183 3 61 7 136 10 165 2 28 7 86 10 127 3 41 7 95 10 120 2 25 6
76 10 115 3 38 8 86 10 105 3 19 7 60 10 90 3 30 8 69 10 85 3 17 9 68 15 115
17 131 36 252 66 425 6 32 63 310 69 335 17 73 59 235 72 275 105 343 207 583
336 790 71 114 132 191 278 346 108 116 244 267 300 333 13 16 29 34 35 40 29
31 227 272 350 426 414 519 848 1135 1274 1810 40 63 80 126 89 140 8 14 20
33 26 42 5 10 36 62 69 115 156 260 294 501 446 778 58 105 254 495 315 625
151 323 276 664 321 875 21 99 26 246 9 302 -41 136 -174 151 -390 43 l-102
-51 -89 -115 c-49 -64 -96 -126 -104 -138 -25 -36 -430 -544 -506 -635 -219
-261 -430 -509 -443 -521 -3 -3 -40 -43 -81 -90 -41 -47 -81 -92 -90 -101 -8
-8 -46 -51 -85 -94 -203 -227 -755 -785 -970 -980 -66 -60 -122 -112 -125
-115 -19 -21 -401 -343 -490 -412 -72 -56 -109 -84 -136 -103 -15 -11 -47 -34
-70 -52 -69 -52 -252 -173 -261 -173 -4 0 -26 17 -48 38 -22 20 -87 80 -144
132 -58 52 -112 102 -121 110 -37 34 -194 176 -214 193 -12 10 -39 35 -61 56
-103 95 -338 309 -372 339 -13 11 -69 62 -125 113 -56 52 -132 121 -168 154
-36 32 -85 78 -110 101 -25 23 -57 52 -72 65 -80 72 -303 276 -343 314 -17 17
-49 45 -71 64 -21 19 -86 78 -144 131 -58 54 -129 119 -159 146 -30 27 -64 58
-75 69 -12 11 -69 63 -126 115 -57 52 -114 104 -126 115 -11 11 -63 58 -114
105 -51 47 -98 90 -104 95 -6 6 -67 62 -136 125 -69 63 -130 119 -136 125 -6
5 -55 51 -109 100 -53 50 -114 105 -134 124 -20 18 -61 56 -91 85 -212 195
-287 265 -314 289 -42 39 -229 213 -281 262 -24 22 -96 90 -160 150 -109 102
-174 163 -433 412 -139 134 -257 188 -362 166z"/>
<path d="M4507 11723 c-111 -119 -209 -258 -286 -408 -29 -55 -52 -101 -52
-102 1 -3 -8 -26 -31 -86 -25 -67 -57 -178 -74 -262 -13 -65 -19 -104 -29
-195 -6 -50 -6 -288 0 -330 2 -19 7 -55 10 -80 35 -287 177 -622 362 -854 75
-94 234 -252 313 -313 220 -167 521 -302 754 -339 21 -3 48 -8 60 -10 52 -10
170 -18 276 -18 112 0 276 10 289 18 3 3 27 7 51 11 25 4 70 13 100 21 30 9
62 17 70 19 191 44 511 223 673 375 27 25 55 49 63 53 8 4 14 13 14 18 0 6
-567 577 -1259 1270 l-1259 1259 -45 -47z"/>
<path d="M12404 10363 c3 -60 8 -117 10 -128 2 -11 7 -40 11 -65 12 -70 14
-81 31 -149 88 -353 308 -699 594 -931 30 -25 57 -47 60 -50 43 -44 285 -179
414 -231 309 -123 682 -158 996 -93 41 8 86 17 100 20 14 3 72 21 130 40 605
200 1063 722 1186 1349 11 59 14 74 19 121 3 28 8 90 10 137 l4 87 -1786 0
-1785 0 6 -107z"/>
</g>
</svg>
